# xmcd
#
# Track frame offsets: 
#        150
#        24282
#        51866
#        80300
#        119942
#        142476
#        160005
#        193443
#
# Disc length: 2887 seconds
#
# Revision: 0
# Processed by: cddbd v1.5.2PL0 Copyright (c) Steve Scherf et al.
# Submitted via: ExactAudioCopy v1.3
#
DISCID=750b4508
DTITLE=Jimmy Dawkins - B Phur Real
DYEAR=1995
DGENRE=Chicago Blues
TTITLE0=Two Timin' Lover
TTITLE1=Lonesome Blues
TTITLE2=If It Ain't Love
TTITLE3=B Phur Real
TTITLE4=Walk With Me
TTITLE5=Begging Business
TTITLE6=You Got It, Baby
TTITLE7=Can't Hide My Love
EXTD=
EXTT0=
EXTT1=
EXTT2=
EXTT3=
EXTT4=
EXTT5=
EXTT6=
EXTT7=
PLAYORDER=
